<svg xmlns="http://www.w3.org/2000/svg" viewBox="0 0 16.93 15.05"><defs><style>.cls-1{fill:#f2f2f2;}</style></defs><title>資產 1</title><g id="圖層_2" data-name="圖層 2"><g id="圖層_6" data-name="圖層 6"><path class="cls-1" d="M4.68,1.88H16.19a.7.7,0,0,1,.73.59.81.81,0,0,1,0,.31L15.53,8.83a.7.7,0,0,1-.75.58H6.22l.19.94h7.86a.7.7,0,0,1,.73.57,1.3,1.3,0,0,1,0,.34,5.07,5.07,0,0,1-.13.56c0,.08,0,.11.07.15a1.64,1.64,0,0,1-.38,3,1.64,1.64,0,0,1-1.69-2.64l.09-.11H6.81l.09.1A1.65,1.65,0,1,1,4.73,12a.15.15,0,0,0,.07-.19c-.62-3-1.25-6.1-1.87-9.15-.05-.24-.11-.48-.15-.72,0-.08,0-.1-.12-.1-.63,0-1.27,0-1.9,0A.7.7,0,0,1,0,1.12V.7A.7.7,0,0,1,.69,0h3A.68.68,0,0,1,4.4.54c.09.41.17.82.26,1.22C4.67,1.8,4.67,1.84,4.68,1.88Z"/></g></g></svg>